<svg xmlns="http://www.w3.org/2000/svg" viewBox="0 0 64 64" role="img" aria-label="Oscar">
  <title>Oscar</title>
  <defs>
    <linearGradient id="sage" x1="0" y1="0" x2="0" y2="1">
      <stop offset="0" stop-color="#59978a"/>
      <stop offset="1" stop-color="#437a6d"/>
    </linearGradient>
  </defs>
  <rect width="64" height="64" rx="15" fill="url(#sage)"/>
  <g transform="translate(32 32) scale(0.46) translate(-46 -46)">
    <ellipse cx="20" cy="36" rx="6.4" ry="8.4" fill="#ffffff" transform="rotate(-24 20 36)"/>
    <ellipse cx="35" cy="24" rx="7" ry="9" fill="#ffffff" transform="rotate(-8 35 24)"/>
    <ellipse cx="57" cy="24" rx="7" ry="9" fill="#ffffff" transform="rotate(8 57 24)"/>
    <ellipse cx="72" cy="36" rx="6.4" ry="8.4" fill="#ffffff" transform="rotate(24 72 36)"/>
    <path d="M46 80 C 30 66 22 57 22 49 C 22 43 27 40 32 41 C 37 42 44 47 46 52 C 48 47 55 42 60 41 C 65 40 70 43 70 49 C 70 57 62 66 46 80 Z" fill="#d6981e"/>
  </g>
</svg>
